<svg xmlns="http://www.w3.org/2000/svg" viewBox="0 0 24 24" fill="none" stroke="currentColor" stroke-width="2" stroke-linecap="round" stroke-linejoin="round">
  <!-- Main person -->
  <circle cx="9" cy="7" r="3"/>
  <path d="M9 14c-4 0-6 2-6 4v1h12v-1c0-2-2-4-6-4z"/>
  <!-- Second person (smaller, behind) -->
  <circle cx="17" cy="5" r="2"/>
  <path d="M17 10c2 0 4 1 4 3v1h-5"/>
  <!-- Settings gear -->
  <circle cx="18" cy="17" r="1.5"/>
  <path d="M18 14v1.5"/>
  <path d="M18 18.5V20"/>
  <path d="M15 17h1.5"/>
  <path d="M19.5 17H21"/>
  <path d="M15.9 14.9l1 1"/>
  <path d="M18.1 18.1l1 1"/>
  <path d="M15.9 19.1l1-1"/>
  <path d="M18.1 15.9l1-1"/>
</svg>
