<?xml version="1.0" encoding="UTF-8"?>
<svg id="_Слой_1" data-name="Слой 1" xmlns="http://www.w3.org/2000/svg" viewBox="0 0 30 30">
  <defs>
    <style>
      .cls-1 {
        fill: #f2f2f2;
      }

      .cls-2 {
        fill: #010101;
      }
    </style>
  </defs>
  <rect class="cls-1" width="30" height="30" rx="4.92" ry="4.92"/>
  <g>
    <path class="cls-2" d="M23.45,15.08h-4.44c-.54,0-1.02.35-1.19.86-.44,1.36-1.7,2.28-3.13,2.28s-2.69-.91-3.13-2.28c-.17-.52-.65-.86-1.19-.86h-4.44c-.69,0-1.25.56-1.25,1.25v7.11c0,.69.56,1.25,1.25,1.25h17.51c.69,0,1.25-.56,1.25-1.25v-7.11c0-.69-.56-1.25-1.25-1.25Z"/>
    <path class="cls-2" d="M14.44,15.75c.06.09.17.14.27.14h0c.11,0,.21-.05.27-.14l3.45-4.85c.07-.1.08-.24.02-.35-.06-.11-.17-.18-.3-.18h-1.62v-4.36c0-.19-.15-.34-.34-.34h-3c-.19,0-.34.15-.34.34v4.36h-1.62c-.13,0-.24.07-.3.18-.06.11-.05.25.02.35l3.47,4.85Z"/>
  </g>
</svg>