<?xml version="1.0" encoding="UTF-8"?>
<svg id="_Слой_1" data-name="Слой 1" xmlns="http://www.w3.org/2000/svg" viewBox="0 0 133.67 135.19">
  <defs>
    <style>
      .cls-1 {
        fill: #d8d8d8;
      }

      .cls-2 {
        fill: #8c8c8d;
      }
    </style>
  </defs>
  <rect class="cls-1" x="2.65" y="2.67" width="126" height="125.73" rx="15.58" ry="15.58"/>
  <path class="cls-2" d="M23.27,128.41c-.21-.21,1.72-4.69,2-5.27,6.54-13.76,20.85-24.47,36.24-25.69.19-.02.34.03.47-.16,0-.12-1.56-.46-1.8-.53-18.1-5.92-20.44-30.57-3.68-39.62,18.69-10.1,39.22,10.45,29.18,29.29-3.27,6.15-7.79,8.69-14.16,10.76-.11.04-.43.12-.43.26,2.93.2,5.94.84,8.75,1.7,13.5,4.13,24.83,14.82,29.53,28.16.07.19.46,1.12.16,1.12H23.27Z"/>
</svg>