<?xml version="1.0" encoding="UTF-8"?>
<svg id="_Слой_1" data-name="Слой 1" xmlns="http://www.w3.org/2000/svg" viewBox="0 0 71.59 71.59">
  <defs>
    <style>
      .cls-1 {
        fill: #010101;
      }
    </style>
  </defs>
  <path class="cls-1" d="M40.86,65.98c0,1.18-.96,2.15-2.15,2.15h-5.83c-1.18,0-2.15-.96-2.15-2.15,0-.49.4-.88.88-.88s.88.4.88.88c0,.21.17.38.38.38h5.83c.21,0,.38-.17.38-.38,0-.49.4-.88.88-.88s.89.4.89.88ZM35.17,64.2c.17.17.39.26.63.26s.46-.09.63-.26l2.61-2.61c.35-.35.35-.91,0-1.25s-.91-.35-1.25,0l-1.1,1.1v-5.02c0-.49-.4-.88-.88-.88s-.88.4-.88.88v5.02l-1.1-1.1c-.35-.35-.91-.35-1.25,0s-.35.91,0,1.25l2.61,2.61Z"/>
</svg>